<mxfile host="app.diagrams.net" modified="2024-05-17T06:48:06.035Z" agent="Mozilla/5.0 (Windows NT 10.0; Win64; x64) AppleWebKit/537.36 (KHTML, like Gecko) Chrome/125.0.0.0 Safari/537.36" version="24.4.3" etag="VoBYj_YhRvcgVlqnZS6Q" type="github">
  <diagram name="Page-1" id="oE00NiEGO_tZnJ9buiIm">
    <mxGraphModel>
      <root>
        <mxCell id="0" />
        <mxCell id="1" parent="0" />
      </root>
    </mxGraphModel>
  </diagram>
</mxfile>
